<svg xmlns="http://www.w3.org/2000/svg" width="10" height="10" viewBox="0 0 10 10" fill="none">
<path d="M8.5 1H8V0.5C8 0.225 7.775 0 7.5 0C7.225 0 7 0.225 7 0.5V1H3V0.5C3 0.225 2.775 0 2.5 0C2.225 0 2 0.225 2 0.5V1H1.5C0.945 1 0.505 1.45 0.505 2L0.5 9C0.5 9.55 0.945 10 1.5 10H8.5C9.05 10 9.5 9.55 9.5 9V2C9.5 1.45 9.05 1 8.5 1ZM8.5 8.5C8.5 8.775 8.275 9 8 9H2C1.725 9 1.5 8.775 1.5 8.5V3.5H8.5V8.5ZM2.5 4.5H3.5V5.5H2.5V4.5ZM4.5 4.5H5.5V5.5H4.5V4.5ZM6.5 4.5H7.5V5.5H6.5V4.5Z" fill="#9FD6CA"/>
</svg>