<svg xmlns="http://www.w3.org/2000/svg" width="13" height="13" viewBox="0 0 13 13" fill="none">
<path d="M6.49456 1.08334C3.50456 1.08334 1.08331 3.51001 1.08331 6.50001C1.08331 9.49001 3.50456 11.9167 6.49456 11.9167C9.48998 11.9167 11.9166 9.49001 11.9166 6.50001C11.9166 3.51001 9.48998 1.08334 6.49456 1.08334ZM6.49998 10.8333C4.10581 10.8333 2.16665 8.89418 2.16665 6.50001C2.16665 4.10584 4.10581 2.16668 6.49998 2.16668C8.89415 2.16668 10.8333 4.10584 10.8333 6.50001C10.8333 8.89418 8.89415 10.8333 6.49998 10.8333ZM6.38081 3.79168H6.34831C6.13165 3.79168 5.95831 3.96501 5.95831 4.18168V6.73834C5.95831 6.92793 6.05581 7.10668 6.22373 7.20418L8.47165 8.55293C8.65581 8.66126 8.89415 8.60709 9.00248 8.42293C9.11623 8.23876 9.05665 7.99501 8.86706 7.88668L6.77081 6.64084V4.18168C6.77081 3.96501 6.59748 3.79168 6.38081 3.79168Z" fill="#003F5E"/>
</svg>